<?xml version="1.0" encoding="iso-8859-1"?>
<!-- Generator: Adobe Illustrator 18.0.0, SVG Export Plug-In . SVG Version: 6.00 Build 0)  -->
<!DOCTYPE svg PUBLIC "-//W3C//DTD SVG 1.1//EN" "http://www.w3.org/Graphics/SVG/1.1/DTD/svg11.dtd">
<svg version="1.1" id="Capa_1" xmlns="http://www.w3.org/2000/svg" xmlns:xlink="http://www.w3.org/1999/xlink" x="0px" y="0px"
	 viewBox="0 0 297 297" style="enable-background:new 0 0 297 297;" xml:space="preserve">
<path d="M294.528,122.98c-1.917-2.213-4.703-3.483-7.631-3.483H51.787l0.06-0.06c3.942-3.947,3.942-10.344-0.002-14.286
	c-3.948-3.945-10.345-3.945-14.286,0.002l-0.055,0.052V57.722c0-10.281,8.362-18.647,18.642-18.647s18.644,8.366,18.644,18.647
	c0,5.578,4.523,10.102,10.103,10.102c5.578,0,10.103-4.524,10.103-10.102c0-21.424-17.428-38.853-38.849-38.853
	c-21.419,0-38.844,17.429-38.844,38.853v61.775h-7.2c-2.928,0-5.714,1.271-7.631,3.483c-1.92,2.213-2.784,5.148-2.369,8.048
	l17.301,121.125c0.711,4.978,4.973,8.674,10.002,8.674h7.196v7.201c0,5.578,4.524,10.103,10.102,10.103
	c5.579,0,10.103-4.525,10.103-10.103v-7.201h187.389v7.201c0,5.578,4.523,10.103,10.103,10.103c5.578,0,10.103-4.525,10.103-10.103
	v-7.201h7.196c5.028,0,9.289-3.696,10.001-8.674l17.302-121.125C297.312,128.129,296.448,125.193,294.528,122.98z M260.834,240.625
	H36.165L21.749,139.702h253.5L260.834,240.625z"/>
<g>
</g>
<g>
</g>
<g>
</g>
<g>
</g>
<g>
</g>
<g>
</g>
<g>
</g>
<g>
</g>
<g>
</g>
<g>
</g>
<g>
</g>
<g>
</g>
<g>
</g>
<g>
</g>
<g>
</g>
</svg>
